<svg width="15" height="15" viewBox="0 0 15 15" fill="none" xmlns="http://www.w3.org/2000/svg">
<path d="M11.5641 2.40061C10.3721 1.45793 8.94211 0.982422 7.26791 0.982422C5.29779 0.982422 3.66292 1.6352 2.36122 2.93868C1.05953 4.24216 0.407654 5.84179 0.407654 7.73757C0.407654 8.16093 0.444904 8.56553 0.509057 8.95971L11.562 2.40061H11.5641Z" fill="#010101"/>
<path d="M12.6154 3.42044L6.25592 14.3989C6.58496 14.4406 6.92022 14.4677 7.26996 14.4677C9.23801 14.4677 10.875 13.8191 12.1766 12.5239C13.4783 11.2288 14.1302 9.63334 14.1302 7.73756C14.1302 6.06911 13.6253 4.63215 12.6174 3.42044H12.6154Z" fill="#010101"/>
<path d="M10.4962 4.52579L0.858765 10.2444C1.18367 11.0849 1.68241 11.8461 2.36119 12.5239C3.11034 13.2706 3.9733 13.794 4.94388 14.111L10.4962 4.52787V4.52579Z" fill="#F8CA10"/>
</svg>
